<svg width="22" height="18" viewBox="0 0 22 18" fill="currentColor" xmlns="http://www.w3.org/2000/svg">
<path d="M21.46 2.68594C20.69 3.03015 19.86 3.25635 19 3.36453C19.88 2.84329 20.56 2.01718 20.88 1.02387C20.05 1.51561 19.13 1.85982 18.16 2.05652C17.37 1.21073 16.26 0.718994 15 0.718994C12.65 0.718994 10.73 2.60726 10.73 4.93809C10.73 5.27247 10.77 5.59701 10.84 5.90189C7.28004 5.72486 4.11004 4.04313 2.00004 1.49594C1.63004 2.11552 1.42004 2.84329 1.42004 3.6104C1.42004 5.07577 2.17004 6.37395 3.33004 7.11156C2.62004 7.11156 1.96004 6.91486 1.38004 6.61982V6.64933C1.38004 8.69495 2.86004 10.4062 4.82004 10.7897C4.19077 10.9591 3.53013 10.9827 2.89004 10.8586C3.16165 11.697 3.69358 12.4306 4.41106 12.9563C5.12854 13.4819 5.99549 13.7733 6.89004 13.7893C5.37367 14.9699 3.49404 15.6081 1.56004 15.5989C1.22004 15.5989 0.880039 15.5792 0.540039 15.5399C2.44004 16.7397 4.70004 17.438 7.12004 17.438C15 17.438 19.33 11.0061 19.33 5.42982C19.33 5.24296 19.33 5.06594 19.32 4.87908C20.16 4.28899 20.88 3.54156 21.46 2.68594Z" fill="#F8F9FA"/>
</svg>
